<svg width="65" height="64" viewBox="0 0 65 64" fill="none" xmlns="http://www.w3.org/2000/svg">
<g clip-path="url(#clip0_2_277)">
<path d="M19.8539 42.5115V21.6855H16.5687L11.0242 24.4707L12.2872 27.2559L15.8057 25.4966V42.5115H19.8539ZM31.5872 42.8633C36.4872 42.8633 39.1538 40.6041 39.1538 36.9374C39.1538 34.0633 37.5094 32.567 35.5464 31.6003C36.9242 30.6337 38.3612 29.0189 38.3612 26.7003C38.3612 23.5892 35.8687 21.3337 31.5575 21.3337C27.3353 21.3337 24.7798 23.5041 24.7798 26.8485C24.7798 29.0781 25.8946 30.5744 27.302 31.6003C25.5724 32.6263 24.0168 34.3559 24.0168 37.0263C24.0205 40.5485 26.6316 42.8633 31.5872 42.8633ZM32.5872 30.4559C30.3872 29.7226 28.4798 29.0189 28.4798 26.9374C28.4798 25.2374 29.7427 24.3263 31.6168 24.3263C33.465 24.3263 34.6983 25.2078 34.6983 26.9078C34.6983 28.6078 33.5242 29.7522 32.5872 30.4559ZM31.5575 39.8448C29.5909 39.8448 28.0946 38.8781 28.0946 36.8226C28.0946 35.0633 29.1798 33.9189 30.3242 33.1855C32.6724 34.067 35.0761 34.5633 35.0761 36.8818C35.0798 38.7003 33.702 39.8448 31.5575 39.8448ZM50.802 40.4596V35.2966H55.8464V32.3633H50.802V27.2003H47.8094V32.3633H42.7649V35.2966H47.8094V40.4596H50.802Z" fill="white"/>
<path fill-rule="evenodd" clip-rule="evenodd" d="M32.3581 0C50.0284 0 64.358 14.3296 64.358 32C64.358 49.6704 50.0284 64 32.3581 64C14.6877 64 0.358093 49.6704 0.358093 32C0.358093 14.3296 14.6877 0 32.3581 0ZM32.3581 5.33333C17.6284 5.33333 5.69142 17.2704 5.69142 32C5.69142 46.7296 17.6284 58.6667 32.3581 58.6667C47.0877 58.6667 59.0247 46.7296 59.0247 32C59.0247 17.2704 47.0877 5.33333 32.3581 5.33333Z" fill="white"/>
</g>
<defs>
<clipPath id="clip0_2_277">
<rect width="63.9999" height="64" fill="white" transform="translate(0.343384)"/>
</clipPath>
</defs>
</svg>
